PathFileType	4	(x/y/z)	S06_M20_T25
DataRate	CameraRate	NumFrames	NumMarkers	Units	OrigDataRate	OrigDataStartFrame	OrigNumFrames
240	240	8	51	mm	240	1	492
Frame#	Time	Sternum			R.Acromium			L.Acromium			Top.Head			R.ASIS			L.ASIS			R.PSIS			L.PSIS			R.Great.Tro			L.Great.Tro			R.Iliac.Crest			L.Iliac.Crest			V.Sacral			R.Thigh.Upper.Post			R.Thigh.Lower.Ant			R.Thigh.Lower.Post			R.Thigh.Upper.Ant			R.Knee.Lat			R.Knee.Med			R.Shank.Upper.Post			R.Shank.Lower.Ant			R.Shank.Lower.Post			R.Shank.Upper.Ant			R.Ankle.Lat			R.Ankle.Med			R.Heel.Upper			R.Heel.Med			R.Heel.Lat			R.Toe.Lat			R.Toe.Med			R.Toe.Tip			L.Thigh.Upper.Post			L.Thigh.Lower.Ant			L.Thigh.Lower.Post			L.Thigh.Upper.Ant			L.Knee.Lat			L.Knee.Med			L.Shank.Upper.Post			L.Shank.Lower.Ant			L.Shank.Lower.Post			L.Shank.Upper.Ant			L.Ankle.Lat			L.Ankle.Med			L.Heel.Upper			L.Heel.Med			L.Heel.Lat			L.Toe.Lat			L.Toe.Med			L.Toe.Tip			Cervical.Spine			Back			
		X1	Y1	Z1	X2	Y2	Z2	X3	Y3	Z3	X4	Y4	Z4	X5	Y5	Z5	X6	Y6	Z6	X7	Y7	Z7	X8	Y8	Z8	X9	Y9	Z9	X10	Y10	Z10	X11	Y11	Z11	X12	Y12	Z12	X13	Y13	Z13	X14	Y14	Z14	X15	Y15	Z15	X16	Y16	Z16	X17	Y17	Z17	X18	Y18	Z18	X19	Y19	Z19	X20	Y20	Z20	X21	Y21	Z21	X22	Y22	Z22	X23	Y23	Z23	X24	Y24	Z24	X25	Y25	Z25	X26	Y26	Z26	X27	Y27	Z27	X28	Y28	Z28	X29	Y29	Z29	X30	Y30	Z30	X31	Y31	Z31	X32	Y32	Z32	X33	Y33	Z33	X34	Y34	Z34	X35	Y35	Z35	X36	Y36	Z36	X37	Y37	Z37	X38	Y38	Z38	X39	Y39	Z39	X40	Y40	Z40	X41	Y41	Z41	X42	Y42	Z42	X43	Y43	Z43	X44	Y44	Z44	X45	Y45	Z45	X46	Y46	Z46	X47	Y47	Z47	X48	Y48	Z48	X49	Y49	Z49	X50	Y50	Z50	X51	Y51	Z51	

1	0	NaN	NaN	NaN	-1726.1	1461.9	465.78	-1746.4	1465.1	115.6	-1676.7	1777.9	289.85	NaN	NaN	NaN	NaN	NaN	NaN	-1837.9	1041.2	316.3	-1835.3	1041.2	237.19	-1730.3	956.93	476.06	-1709.5	938.94	117.03	-1742.5	1102	451.8	-1703.6	1090.4	132.6	-1852.9	1008.5	281.19	-1816.1	727.56	458.09	NaN	NaN	NaN	-1858	651.59	435.72	-1744.4	711.21	443.19	-1892	540.39	417.41	-1873	546.25	288.64	-2028.5	356.73	408.39	NaN	NaN	NaN	-2067.7	292.03	389.27	-1970.9	338.12	396.83	-2117.4	167.55	358.38	-2103	171.74	274.78	-2195.1	154.14	313.49	-2197.9	120.72	283.84	-2197.3	121.95	347.89	-2034.7	48.302	382.55	-2014.8	47.867	260.26	-1947.8	49	303.99	-1551.2	720.1	143.45	-1480.8	668.22	211.59	-1532.8	632.39	163.45	-1506.8	757.93	188.56	-1512.5	543.55	179.99	-1492.4	560.06	299.08	NaN	NaN	NaN	-1377.9	286.63	189.15	-1435.2	248.44	207.56	-1406	351.04	177.73	-1329	138.69	204.1	-1322.9	166.44	291.77	NaN	NaN	NaN	NaN	NaN	NaN	-1339.6	39.206	227.39	-1198.7	144.87	178.31	-1185.1	171.77	290.99	-1144.4	225.51	232.79	-1791.3	1518.6	293.34	-1846.8	1243.6	288.99
2	0.0041667	NaN	NaN	NaN	-1720.7	1461.9	465.21	-1740.8	1464.9	115.04	-1671.5	1777.8	289.23	NaN	NaN	NaN	NaN	NaN	NaN	-1832	1040.9	315.77	-1829.1	1040.9	236.65	-1725	956.88	475.79	-1704.1	939.34	116.78	-1736.9	1101.7	451.48	-1697.3	1090.3	132.37	-1846.8	1008.1	280.64	-1810.3	727.36	458.09	NaN	NaN	NaN	-1852.1	651.3	435.65	-1738.8	711.08	443.49	-1886.3	540.29	417.38	-1866.9	545.85	288.79	-2024.5	357.77	408.23	NaN	NaN	NaN	-2064	293.47	389.17	-1966.6	338.93	396.83	-2115	169.52	358.36	-2100.3	173.39	274.85	-2192.5	157.18	313.35	-2195.8	123.99	283.58	-2195.3	125.02	347.64	-2034.3	48.512	382.48	-2014.3	48.009	260.26	-1947.6	48.97	303.95	-1545.5	719.38	143.22	-1475.2	667.16	211.21	-1527.5	631.62	163.25	-1500.7	756.99	188.09	-1507.3	542.81	179.79	-1485.5	559.87	297.74	NaN	NaN	NaN	-1374.3	285.21	188.98	-1432.2	247.24	207.21	-1402.1	349.73	177.68	-1326.8	136.91	203.94	-1321	164.37	291.56	NaN	NaN	NaN	NaN	NaN	NaN	-1338.6	38.134	227.13	-1196.7	142.05	178.32	-1183	168.63	291.17	-1141.8	222.1	233.03	-1785.9	1518.3	292.68	-1841.1	1243.3	288.56
3	0.0083333	NaN	NaN	NaN	-1715.2	1462	464.61	-1734.9	1464.6	114.46	-1666	1777.7	288.57	NaN	NaN	NaN	NaN	NaN	NaN	-1825.8	1040.6	315.2	-1822.6	1040.5	236.08	-1719.5	956.83	475.51	-1698.5	939.77	116.53	-1731.1	1101.5	451.15	-1690.8	1090.1	132.13	-1840.3	1007.8	280.05	-1804.2	727.16	458.09	NaN	NaN	NaN	-1845.8	650.98	435.59	-1732.8	710.95	443.81	-1880.3	540.17	417.37	-1860.4	545.4	288.98	-2020.3	358.87	408.08	NaN	NaN	NaN	-2060.2	294.99	389.05	-1962.1	339.78	396.85	-2112.4	171.59	358.35	-2097.4	175.11	274.94	-2189.6	160.39	313.2	-2193.5	127.43	283.31	-2193.1	128.26	347.37	-2033.8	48.748	382.41	-2013.8	48.169	260.27	-1947.4	48.939	303.9	-1539.6	718.63	142.97	-1469.5	666.04	210.82	-1522.1	630.81	163.06	-1494.4	755.99	187.59	-1502	542.02	179.59	-1478.5	559.67	296.35	NaN	NaN	NaN	-1370.6	283.74	188.83	-1429	246	206.88	-1398.1	348.37	177.64	-1324.6	135.09	203.79	-1318.9	162.27	291.36	NaN	NaN	NaN	NaN	NaN	NaN	-1337.6	37.109	226.88	-1194.6	139.12	178.34	-1180.8	165.35	291.36	-1139	218.54	233.28	-1780.2	1518.1	291.98	-1835.2	1243	288.1
4	0.0125	NaN	NaN	NaN	-1709.4	1462	463.99	-1728.8	1464.3	113.85	-1660.4	1777.6	287.89	NaN	NaN	NaN	NaN	NaN	NaN	-1819.3	1040.3	314.6	-1815.8	1040.2	235.48	-1713.8	956.79	475.21	-1692.7	940.24	116.27	-1725.1	1101.3	450.81	-1684	1090	131.89	-1833.6	1007.4	279.42	-1797.9	726.94	458.09	NaN	NaN	NaN	-1839.2	650.64	435.53	-1726.6	710.82	444.16	-1874	540.03	417.39	-1853.6	544.9	289.21	-2015.8	360.01	407.95	NaN	NaN	NaN	-2056.2	296.58	388.93	-1957.4	340.65	396.9	-2109.7	173.73	358.34	-2094.4	176.9	275.05	-2186.6	163.76	313.05	-2191.1	131.05	283.02	-2190.8	131.66	347.09	-2033.4	49.011	382.33	-2013.2	48.352	260.27	-1947.2	48.909	303.86	-1533.5	717.83	142.72	-1463.6	664.86	210.41	-1516.5	629.95	162.85	-1487.9	754.92	187.09	-1496.5	541.2	179.38	-1471.2	559.46	294.92	NaN	NaN	NaN	-1366.7	282.23	188.7	-1425.7	244.74	206.58	-1393.9	346.98	177.61	-1322.2	133.25	203.67	-1316.7	160.15	291.19	NaN	NaN	NaN	NaN	NaN	NaN	-1336.5	36.156	226.66	-1192.4	136.1	178.37	-1178.5	161.96	291.54	-1136.1	214.84	233.52	-1774.4	1517.9	291.26	-1829	1242.7	287.61
5	0.016667	NaN	NaN	NaN	-1703.5	1462	463.35	-1722.5	1464.1	113.22	-1654.6	1777.5	287.18	NaN	NaN	NaN	NaN	NaN	NaN	-1812.7	1040	313.97	-1808.8	1039.9	234.84	-1708	956.76	474.9	-1686.7	940.75	116.02	-1718.9	1101.1	450.45	-1677.2	1090	131.66	-1826.7	1007.1	278.76	-1791.4	726.72	458.08	NaN	NaN	NaN	-1832.4	650.28	435.47	-1720.2	710.68	444.53	-1867.4	539.87	417.44	-1846.5	544.33	289.5	-2011.1	361.19	407.83	NaN	NaN	NaN	-2052	298.24	388.8	-1952.5	341.54	396.99	-2106.8	175.96	358.34	-2091.1	178.76	275.17	-2183.4	167.27	312.9	-2188.4	134.84	282.72	-2188.3	135.21	346.79	-2032.9	49.308	382.25	-2012.5	48.561	260.26	-1947	48.879	303.82	-1527.2	717.01	142.45	-1457.6	663.63	210	-1510.8	629.06	162.65	-1481.3	753.79	186.56	-1491	540.35	179.17	-1463.9	559.25	293.48	NaN	NaN	NaN	-1362.8	280.69	188.61	-1422.3	243.47	206.3	-1389.7	345.57	177.6	-1319.8	131.41	203.59	-1314.4	158.04	291.06	NaN	NaN	NaN	NaN	NaN	NaN	-1335.4	35.3	226.46	-1190.2	133	178.42	-1176.1	158.48	291.72	-1133.1	211.02	233.77	-1768.5	1517.7	290.51	-1822.6	1242.4	287.1
6	0.020833	NaN	NaN	NaN	-1697.5	1462.1	462.69	-1716.1	1463.8	112.57	-1648.6	1777.5	286.45	NaN	NaN	NaN	NaN	NaN	NaN	-1805.8	1039.7	313.3	-1801.7	1039.6	234.17	-1701.9	956.73	474.57	-1680.7	941.32	115.77	-1712.5	1100.9	450.09	-1670.3	1090	131.42	-1819.6	1006.7	278.06	-1784.7	726.49	458.06	NaN	NaN	NaN	-1825.4	649.89	435.42	-1713.5	710.55	444.92	-1860.6	539.69	417.52	-1839.1	543.69	289.85	-2006.2	362.4	407.74	NaN	NaN	NaN	-2047.6	299.96	388.67	-1947.5	342.44	397.12	-2103.8	178.25	358.35	-2087.7	180.66	275.31	-2180	170.91	312.74	-2185.6	138.78	282.42	-2185.7	138.9	346.48	-2032.4	49.643	382.16	-2011.9	48.801	260.26	-1946.8	48.85	303.78	-1520.9	716.15	142.17	-1451.5	662.34	209.57	-1505.1	628.15	162.44	-1474.6	752.62	186.03	-1485.4	539.48	178.97	-1456.5	559.02	292.05	NaN	NaN	NaN	-1358.8	279.14	188.55	-1418.8	242.21	206.06	-1385.3	344.14	177.6	-1317.2	129.59	203.54	-1311.9	155.96	290.97	NaN	NaN	NaN	NaN	NaN	NaN	-1334.3	34.559	226.3	-1187.9	129.85	178.47	-1173.6	154.93	291.9	-1129.9	207.09	234.01	-1762.4	1517.5	289.74	-1816.1	1242.1	286.57
7	0.025	NaN	NaN	NaN	-1691.4	1462.2	462.02	-1709.6	1463.6	111.91	-1642.5	1777.4	285.7	NaN	NaN	NaN	NaN	NaN	NaN	-1798.8	1039.5	312.61	-1794.4	1039.4	233.48	-1695.8	956.7	474.23	-1674.5	941.95	115.52	-1705.9	1100.7	449.71	-1663.4	1090.1	131.19	-1812.4	1006.4	277.33	-1777.8	726.26	458.04	NaN	NaN	NaN	-1818.1	649.49	435.37	-1706.6	710.42	445.34	-1853.6	539.48	417.65	-1831.4	542.99	290.26	-2001.1	363.65	407.67	NaN	NaN	NaN	-2043.1	301.75	388.54	-1942.3	343.35	397.3	-2100.5	180.6	358.38	-2084.1	182.61	275.47	-2176.4	174.67	312.6	-2182.6	142.86	282.11	-2182.8	142.73	346.17	-2031.8	50.02	382.07	-2011.1	49.08	260.25	-1946.6	48.822	303.74	-1514.5	715.28	141.87	-1445.4	661.02	209.15	-1499.3	627.21	162.22	-1467.8	751.39	185.49	-1479.8	538.59	178.76	-1449.1	558.78	290.62	NaN	NaN	NaN	-1354.8	277.58	188.53	-1415.3	240.96	205.87	-1381	342.72	177.61	-1314.5	127.81	203.53	-1309.3	153.94	290.92	NaN	NaN	NaN	NaN	NaN	NaN	-1333.2	33.947	226.18	-1185.6	126.65	178.54	-1171	151.33	292.09	-1126.6	203.07	234.24	-1756.2	1517.4	288.95	-1809.4	1241.7	286.01
8	0.029167	NaN	NaN	NaN	-1685.2	1462.3	461.34	-1702.9	1463.4	111.24	-1636.3	1777.4	284.93	NaN	NaN	NaN	NaN	NaN	NaN	-1791.7	1039.2	311.9	-1786.9	1039.1	232.76	-1689.5	956.68	473.88	-1668.3	942.64	115.27	-1699.3	1100.5	449.33	-1656.4	1090.2	130.96	-1805	1006.2	276.57	-1770.8	726.02	458.01	NaN	NaN	NaN	-1810.7	649.06	435.33	-1699.6	710.3	445.79	-1846.3	539.24	417.82	-1823.4	542.21	290.75	-1995.7	364.94	407.63	NaN	NaN	NaN	-2038.5	303.6	388.41	-1937	344.26	397.53	-2097.1	182.99	358.43	-2080.3	184.61	275.67	-2172.5	178.54	312.47	-2179.4	147.08	281.8	-2179.8	146.68	345.86	-2031.3	50.447	381.96	-2010.4	49.402	260.24	-1946.4	48.795	303.71	-1508.1	714.41	141.57	-1439.3	659.68	208.71	-1493.6	626.27	162	-1461	750.14	184.94	-1474.3	537.7	178.56	-1441.8	558.55	289.23	NaN	NaN	NaN	-1350.8	276.03	188.55	-1411.7	239.73	205.72	-1376.6	341.31	177.65	-1311.8	126.07	203.56	-1306.7	151.97	290.92	NaN	NaN	NaN	NaN	NaN	NaN	-1332	33.475	226.09	-1183.2	123.43	178.63	-1168.4	147.68	292.26	-1123.3	198.97	234.47	-1749.9	1517.2	288.15	-1802.6	1241.4	285.43
